HIERARCHY
ROOT Hips
{
  OFFSET -61.8389 94.6712 34.9601
  CHANNELS 6 Xposition Yposition Zposition Zrotation Xrotation Yrotation
  JOINT Spine
  {
    OFFSET 0 8.09494 0
    CHANNELS 6 Xposition Yposition Zposition Zrotation Xrotation Yrotation
    JOINT Spine1
    {
      OFFSET 0 8.09494 0
      CHANNELS 6 Xposition Yposition Zposition Zrotation Xrotation Yrotation
      JOINT Spine2
      {
        OFFSET 0 8.09494 0
        CHANNELS 6 Xposition Yposition Zposition Zrotation Xrotation Yrotation
        JOINT Spine3
        {
          OFFSET 0 8.09494 0
          CHANNELS 6 Xposition Yposition Zposition Zrotation Xrotation Yrotation
          JOINT Neck
          {
            OFFSET 0 17.2017 0
            CHANNELS 6 Xposition Yposition Zposition Zrotation Xrotation Yrotation
            JOINT Head
            {
              OFFSET 0 10.9282 0
              CHANNELS 6 Xposition Yposition Zposition Zrotation Xrotation Yrotation
              End Site
              {
                OFFSET 0 20.4903 0
              }
            }
          }
          JOINT LeftShoulder
          {
            OFFSET 5 17 0
            CHANNELS 6 Xposition Yposition Zposition Zrotation Xrotation Yrotation
            JOINT LeftShoulder2
            {
              OFFSET 9 0 0
              CHANNELS 6 Xposition Yposition Zposition Zrotation Xrotation Yrotation
              JOINT LeftArm
              {
                OFFSET 9 0 0
                CHANNELS 6 Xposition Yposition Zposition Zrotation Xrotation Yrotation
                JOINT LeftForeArm
                {
                  OFFSET 0 -29.0233 -2
                  CHANNELS 6 Xposition Yposition Zposition Zrotation Xrotation Yrotation
                  JOINT LeftHand
                  {
                    OFFSET 0 -22.9767 2
                    CHANNELS 6 Xposition Yposition Zposition Zrotation Xrotation Yrotation
                    JOINT LeftHandThumb1
                    {
                      OFFSET -0.5 -1.5 2.65
                      CHANNELS 6 Xposition Yposition Zposition Zrotation Xrotation Yrotation
                      JOINT LeftHandThumb2
                      {
                        OFFSET 0 -3.8 3.7
                        CHANNELS 6 Xposition Yposition Zposition Zrotation Xrotation Yrotation
                        JOINT LeftHandThumb3
                        {
                          OFFSET 0 -3 2.7
                          CHANNELS 6 Xposition Yposition Zposition Zrotation Xrotation Yrotation
                          End Site
                          {
                            OFFSET 0 -2.3 1.8
                          }
                        }
                      }
                    }
                    JOINT LeftHandIndex
                    {
                      OFFSET 0 -1.9 1.6
                      CHANNELS 6 Xposition Yposition Zposition Zrotation Xrotation Yrotation
                      JOINT LeftHandIndex1
                      {
                        OFFSET 0 -8.3 1.9
                        CHANNELS 6 Xposition Yposition Zposition Zrotation Xrotation Yrotation
                        JOINT LeftHandIndex2
                        {
                          OFFSET 0 -4.5 0
                          CHANNELS 6 Xposition Yposition Zposition Zrotation Xrotation Yrotation
                          JOINT LeftHandIndex3
                          {
                            OFFSET 0 -3.4 0
                            CHANNELS 6 Xposition Yposition Zposition Zrotation Xrotation Yrotation
                            End Site
                            {
                              OFFSET 0 -2.6 0
                            }
                          }
                        }
                      }
                    }
                    JOINT LeftHandMiddle
                    {
                      OFFSET -0.25 -2.2 0.4
                      CHANNELS 6 Xposition Yposition Zposition Zrotation Xrotation Yrotation
                      JOINT LeftHandMiddle1
                      {
                        OFFSET 0 -8.3 1
                        CHANNELS 6 Xposition Yposition Zposition Zrotation Xrotation Yrotation
                        JOINT LeftHandMiddle2
                        {
                          OFFSET 0 -4.65 0
                          CHANNELS 6 Xposition Yposition Zposition Zrotation Xrotation Yrotation
                          JOINT LeftHandMiddle3
                          {
                            OFFSET 0 -3.3 0
                            CHANNELS 6 Xposition Yposition Zposition Zrotation Xrotation Yrotation
                            End Site
                            {
                              OFFSET 0 -2.7 0
                            }
                          }
                        }
                      }
                    }
                    JOINT LeftHandRing
                    {
                      OFFSET -0.5 -2.15 -0.8
                      CHANNELS 6 Xposition Yposition Zposition Zrotation Xrotation Yrotation
                      JOINT LeftHandRing1
                      {
                        OFFSET 0 -7.75 -0.2
                        CHANNELS 6 Xposition Yposition Zposition Zrotation Xrotation Yrotation
                        JOINT LeftHandRing2
                        {
                          OFFSET 0 -3.8 0
                          CHANNELS 6 Xposition Yposition Zposition Zrotation Xrotation Yrotation
                          JOINT LeftHandRing3
                          {
                            OFFSET 0 -3.4 0
                            CHANNELS 6 Xposition Yposition Zposition Zrotation Xrotation Yrotation
                            End Site
                            {
                              OFFSET 0 -2.6 0
                            }
                          }
                        }
                      }
                    }
                    JOINT LeftHandPinky
                    {
                      OFFSET -0.75 -1.75 -1.85
                      CHANNELS 6 Xposition Yposition Zposition Zrotation Xrotation Yrotation
                      JOINT LeftHandPinky1
                      {
                        OFFSET 0 -7.15 -1
                        CHANNELS 6 Xposition Yposition Zposition Zrotation Xrotation Yrotation
                        JOINT LeftHandPinky2
                        {
                          OFFSET 0 -3 0
                          CHANNELS 6 Xposition Yposition Zposition Zrotation Xrotation Yrotation
                          JOINT LeftHandPinky3
                          {
                            OFFSET 0 -2.35 0
                            CHANNELS 6 Xposition Yposition Zposition Zrotation Xrotation Yrotation
                            End Site
                            {
                              OFFSET 0 -2.1 0
                            }
                          }
                        }
                      }
                    }
                  }
                }
              }
            }
          }
          JOINT RightShoulder
          {
            OFFSET -5 17 0
            CHANNELS 6 Xposition Yposition Zposition Zrotation Xrotation Yrotation
            JOINT RightShoulder2
            {
              OFFSET -9 0 0
              CHANNELS 6 Xposition Yposition Zposition Zrotation Xrotation Yrotation
              JOINT RightArm
              {
                OFFSET -9 0 0
                CHANNELS 6 Xposition Yposition Zposition Zrotation Xrotation Yrotation
                JOINT RightForeArm
                {
                  OFFSET 0 -29.0233 -2
                  CHANNELS 6 Xposition Yposition Zposition Zrotation Xrotation Yrotation
                  JOINT RightHand
                  {
                    OFFSET 0 -22.9767 2
                    CHANNELS 6 Xposition Yposition Zposition Zrotation Xrotation Yrotation
                    JOINT RightHandThumb1
                    {
                      OFFSET 0.5 -1.5 2.65
                      CHANNELS 6 Xposition Yposition Zposition Zrotation Xrotation Yrotation
                      JOINT RightHandThumb2
                      {
                        OFFSET 0 -3.8 3.7
                        CHANNELS 6 Xposition Yposition Zposition Zrotation Xrotation Yrotation
                        JOINT RightHandThumb3
                        {
                          OFFSET 0 -3 2.7
                          CHANNELS 6 Xposition Yposition Zposition Zrotation Xrotation Yrotation
                          End Site
                          {
                            OFFSET 0 -2.3 1.8
                          }
                        }
                      }
                    }
                    JOINT RightHandIndex
                    {
                      OFFSET 0 -1.9 1.6
                      CHANNELS 6 Xposition Yposition Zposition Zrotation Xrotation Yrotation
                      JOINT RightHandIndex1
                      {
                        OFFSET 0 -8.3 1.9
                        CHANNELS 6 Xposition Yposition Zposition Zrotation Xrotation Yrotation
                        JOINT RightHandIndex2
                        {
                          OFFSET 0 -4.5 0
                          CHANNELS 6 Xposition Yposition Zposition Zrotation Xrotation Yrotation
                          JOINT RightHandIndex3
                          {
                            OFFSET 0 -3.4 0
                            CHANNELS 6 Xposition Yposition Zposition Zrotation Xrotation Yrotation
                            End Site
                            {
                              OFFSET 0 -2.6 0
                            }
                          }
                        }
                      }
                    }
                    JOINT RightHandMiddle
                    {
                      OFFSET 0.25 -2.2 0.4
                      CHANNELS 6 Xposition Yposition Zposition Zrotation Xrotation Yrotation
                      JOINT RightHandMiddle1
                      {
                        OFFSET 0 -8.3 1
                        CHANNELS 6 Xposition Yposition Zposition Zrotation Xrotation Yrotation
                        JOINT RightHandMiddle2
                        {
                          OFFSET 0 -4.65 0
                          CHANNELS 6 Xposition Yposition Zposition Zrotation Xrotation Yrotation
                          JOINT RightHandMiddle3
                          {
                            OFFSET 0 -3.3 0
                            CHANNELS 6 Xposition Yposition Zposition Zrotation Xrotation Yrotation
                            End Site
                            {
                              OFFSET 0 -2.7 0
                            }
                          }
                        }
                      }
                    }
                    JOINT RightHandRing
                    {
                      OFFSET 0.5 -2.15 -0.8
                      CHANNELS 6 Xposition Yposition Zposition Zrotation Xrotation Yrotation
                      JOINT RightHandRing1
                      {
                        OFFSET 0 -7.75 -0.2
                        CHANNELS 6 Xposition Yposition Zposition Zrotation Xrotation Yrotation
                        JOINT RightHandRing2
                        {
                          OFFSET 0 -3.8 0
                          CHANNELS 6 Xposition Yposition Zposition Zrotation Xrotation Yrotation
                          JOINT RightHandRing3
                          {
                            OFFSET 0 -3.4 0
                            CHANNELS 6 Xposition Yposition Zposition Zrotation Xrotation Yrotation
                            End Site
                            {
                              OFFSET 0 -2.6 0
                            }
                          }
                        }
                      }
                    }
                    JOINT RightHandPinky
                    {
                      OFFSET 0.75 -1.75 -1.85
                      CHANNELS 6 Xposition Yposition Zposition Zrotation Xrotation Yrotation
                      JOINT RightHandPinky1
                      {
                        OFFSET 0 -7.15 -1
                        CHANNELS 6 Xposition Yposition Zposition Zrotation Xrotation Yrotation
                        JOINT RightHandPinky2
                        {
                          OFFSET 0 -3 0
                          CHANNELS 6 Xposition Yposition Zposition Zrotation Xrotation Yrotation
                          JOINT RightHandPinky3
                          {
                            OFFSET 0 -2.35 0
                            CHANNELS 6 Xposition Yposition Zposition Zrotation Xrotation Yrotation
                            End Site
                            {
                              OFFSET 0 -2.1 0
                            }
                          }
                        }
                      }
                    }
                  }
                }
              }
            }
          }
        }
      }
    }
  }
  JOINT LeftUpLeg
  {
    OFFSET 14.5 0 0
    CHANNELS 6 Xposition Yposition Zposition Zrotation Xrotation Yrotation
    JOINT LeftLeg
    {
      OFFSET 0 -45.7849 -1
      CHANNELS 6 Xposition Yposition Zposition Zrotation Xrotation Yrotation
      JOINT LeftFoot
      {
        OFFSET 0 -41.7151 -2
        CHANNELS 6 Xposition Yposition Zposition Zrotation Xrotation Yrotation
        JOINT LeftToeBase
        {
          OFFSET 0 -7.5 12.5
          CHANNELS 6 Xposition Yposition Zposition Zrotation Xrotation Yrotation
          JOINT LeftFootToe
          {
            OFFSET 0 0 4
            CHANNELS 6 Xposition Yposition Zposition Zrotation Xrotation Yrotation
            End Site
            {
              OFFSET 0 0 0
            }
          }
        }
      }
    }
  }
  JOINT RightUpLeg
  {
    OFFSET -14.5 0 0
    CHANNELS 6 Xposition Yposition Zposition Zrotation Xrotation Yrotation
    JOINT RightLeg
    {
      OFFSET 0 -45.7849 -1
      CHANNELS 6 Xposition Yposition Zposition Zrotation Xrotation Yrotation
      JOINT RightFoot
      {
        OFFSET 0 -41.7151 -2
        CHANNELS 6 Xposition Yposition Zposition Zrotation Xrotation Yrotation
        JOINT RightToeBase
        {
          OFFSET 0 -7.5 12.5
          CHANNELS 6 Xposition Yposition Zposition Zrotation Xrotation Yrotation
          JOINT RightFootToe
          {
            OFFSET 0 0 4
            CHANNELS 6 Xposition Yposition Zposition Zrotation Xrotation Yrotation
            End Site
            {
              OFFSET 0 0 0
            }
          }
        }
      }
    }
  }
}
MOTION
Frames:	3
Frame Time:	0.0111111
-62.3231 94.6882 34.4664 0.355486 -0.474312 127.066 7.10543e-15 8.09494 0 0.031458 0.097609 -0.035844 3.55271e-15 8.09494 0 0.26956 -0.0451694 -0.638311 3.55271e-15 8.09494 1.42109e-14 0.1324 -0.0190842 -0.321924 -7.10543e-15 8.09494 -1.42109e-14 0.132398 -0.0190839 -0.321922 7.10543e-15 17.2017 0 -0.768244 -0.24665 3.87033 0 10.9282 0 -0.224021 -1.44698 9.04361 5 17 0 -0.472572 0.617474 2.62737 9 2.84217e-14 -1.42109e-14 0.0449857 0.412036 -1.86036 9 2.84217e-14 0 -7.60292 -4.3249 -4.25983 7.10543e-15 -29.0233 -2 6.95764 2.75968 13.6718 -1.42109e-14 -22.9767 2 3.37614 0.110124 -6.00202 -0.5 -1.5 2.65 -0.447559 -8.2334 -6.44185 0 -3.8 3.7 -0.0459231 16.9703 0.0144889 -7.10543e-15 -3 2.7 5.89693e-16 1.84984 6.36443e-15 7.10543e-15 -1.9 1.6 -1.98785e-16 1.98785e-16 -6.36111e-15 0 -8.3 1.9 -0.126728 2.94162 -1.2739e-14 7.10543e-15 -4.5 0 -4.94858 0 -0 7.10543e-15 -3.4 0 -4.63171 7.95139e-16 -0 -0.25 -2.2 0.4 -1.98785e-16 1.98785e-16 -6.36111e-15 -7.10543e-15 -8.3 1 -1.41584 3.35817 0.064557 0 -4.65 0 -4.09752 3.97569e-16 -3.18055e-15 0 -3.3 0 -3.88061 1.59028e-15 -6.36111e-15 -0.5 -2.15 -0.8 -1.98785e-16 1.98785e-16 -6.36111e-15 0 -7.75 -0.2 -4.00866 4.12677 0.208299 3.55271e-15 -3.8 0 -1.99199 -1.19271e-15 -3.18055e-15 -3.55271e-15 -3.4 0 -1.9399 0 -3.18055e-15 -0.75 -1.75 -1.85 -1.98785e-16 1.98785e-16 -6.36111e-15 7.10543e-15 -7.15 -1 -5.33418 4.49382 0.292425 -7.10543e-15 -3 1.42109e-14 -1.96997 0 -0 3.55271e-15 -2.35 -1.42109e-14 -1.92333 -1.59028e-15 1.59028e-14 -5 17 0 1.19597 -1.21705 4.59474 -9 0 0 -0.724252 -0.232898 -3.18103 -9 -2.84217e-14 0 -0.716813 -0.524399 2.01705 3.55271e-15 -29.0233 -2 -0.18532 -0.534127 0.836795 1.06581e-14 -22.9767 2 2.16629 1.54029 -4.48733 0.5 -1.5 2.65 -0.106398 -3.19686 4.09504 -7.10543e-15 -3.8 3.7 0.0284924 4.39433 3.18993e-15 3.55271e-15 -3 2.7 6.95746e-16 5.95025 -0 3.55271e-15 -1.9 1.6 -1.98785e-16 1.98785e-16 9.54166e-15 -3.55271e-15 -8.3 1.9 6.21102 7.85426 -0.472238 0 -4.5 0 2.45233 7.95139e-16 1.27222e-14 0 -3.4 -1.42109e-14 2.37228 1.59028e-15 -3.18055e-15 0.25 -2.2 0.4 -1.98785e-16 1.98785e-16 9.54166e-15 7.10543e-15 -8.3 1 4.64181 6.6119 -0.294913 7.10543e-15 -4.65 1.42109e-14 3.95224 -1.19271e-15 -6.36111e-15 0 -3.3 0 3.74843 3.18055e-15 6.36111e-15 0.5 -2.15 -0.8 -1.98785e-16 1.98785e-16 9.54166e-15 -3.55271e-15 -7.75 -0.2 1.63486 4.22171 -0.0782561 -7.10543e-15 -3.8 0 4.21412 7.95139e-16 3.18055e-15 -7.10543e-15 -3.4 -1.42109e-14 3.98852 1.59028e-15 3.18055e-15 0.75 -1.75 -1.85 -1.98785e-16 1.98785e-16 9.54166e-15 0 -7.15 -1 0.131739 3.00848 -0.0183658 0 -3 -1.42109e-14 6.3668 -1.98785e-15 3.18055e-15 7.10543e-15 -2.35 1.42109e-14 5.85537 -2.38542e-15 -9.54166e-15 14.5 0 0 2.4935 -2.64995 6.02143 0 -45.7849 -1 -0.00606772 8.67964 0.175857 0 -41.7151 -2 -1.63137 -5.8404 -2.30277 -3.55271e-15 -7.5 12.5 -1.94126e-19 -3.88251e-19 -3.18055e-15 -3.55271e-15 0 4 4.77752 -0.816984 -0.419343 -14.5 1.42109e-14 0 -0.605657 -3.83142 -2.55409 7.10543e-15 -45.7849 -1 0.00619321 6.1011 -0.799221 7.10543e-15 -41.7151 -2 1.05264 -2.20664 0.819342 0 -7.5 12.5 7.27971e-20 -2.42657e-20 3.18055e-15 3.55271e-15 -4.33681e-19 4 -3.51419 1.10371 -8.21511 
-62.3282 94.6883 34.4711 0.355913 -0.474575 127.067 -1.06581e-14 8.09494 0 0.031603 0.0977359 -0.0387187 3.55271e-15 8.09494 0 0.269583 -0.0454989 -0.638465 7.10543e-15 8.09494 1.42109e-14 0.132436 -0.0193394 -0.32199 -3.55271e-15 8.09494 0 0.132434 -0.0193391 -0.321988 0 17.2017 1.42109e-14 -0.774167 -0.236413 3.87077 -3.55271e-15 10.9282 0 -0.225798 -1.43807 9.03865 5 17 0 -0.472721 0.621332 2.62643 9 0 -1.42109e-14 0.0453128 0.411653 -1.86013 9 2.84217e-14 -1.42109e-14 -7.60422 -4.32462 -4.26511 -1.77636e-15 -29.0233 -2 6.95746 2.75963 13.6773 0 -22.9767 2 3.37633 0.108972 -6.01121 -0.5 -1.5 2.65 -0.443743 -8.23891 -6.44756 0 -3.8 3.7 -0.0459255 16.9795 0.0144896 -3.55271e-15 -3 2.7 6.92352e-16 1.85099 3.18222e-15 7.10543e-15 -1.9 1.6 -1.98785e-16 1.98785e-16 3.18055e-15 0 -8.3 1.9 -0.126728 2.94189 6.3695e-15 7.10543e-15 -4.5 0 -4.94897 3.97569e-16 3.18055e-15 0 -3.4 0 -4.63375 0 6.36111e-15 -0.25 -2.2 0.4 -1.98785e-16 1.98785e-16 3.18055e-15 -7.10543e-15 -8.3 1 -1.4159 3.35834 0.064557 0 -4.65 0 -4.09792 3.97569e-16 -3.18055e-15 -3.55271e-15 -3.3 0 -3.88024 0 3.18055e-15 -0.5 -2.15 -0.8 -1.98785e-16 1.98785e-16 3.18055e-15 0 -7.75 -0.2 -4.00876 4.12671 0.208331 -3.55271e-15 -3.8 1.42109e-14 -1.99164 3.97569e-16 9.54166e-15 -7.10543e-15 -3.4 0 -1.93942 0 3.18055e-15 -0.75 -1.75 -1.85 -1.98785e-16 1.98785e-16 3.18055e-15 0 -7.15 -1 -5.3345 4.49382 0.292472 3.55271e-15 -3 0 -1.96847 7.95139e-16 -3.18055e-15 0 -2.35 0 -1.92318 -2.38542e-15 6.36111e-15 -5 17 0 1.1923 -1.21695 4.58041 -9 -2.84217e-14 -1.42109e-14 -0.724366 -0.232764 -3.18086 -9 0 0 -0.708533 -0.524553 2.00882 -3.55271e-15 -29.0233 -2 -0.179385 -0.538659 0.847338 0 -22.9767 2 2.15559 1.54062 -4.4975 0.5 -1.5 2.65 -0.104879 -3.20189 4.0955 -3.55271e-15 -3.8 3.7 0.0284924 4.39412 9.56979e-15 0 -3 2.7 9.61381e-16 5.95211 -6.39559e-15 3.55271e-15 -1.9 1.6 -1.98785e-16 0 -6.36111e-15 -7.10543e-15 -8.3 1.9 6.21683 7.85712 -0.472418 0 -4.5 -1.42109e-14 2.44271 -1.19271e-15 -3.18055e-15 0 -3.4 0 2.36329 -2.38542e-15 3.18055e-15 0.25 -2.2 0.4 -1.98785e-16 0 -6.36111e-15 -7.10543e-15 -8.3 1 4.64198 6.61468 -0.294934 7.10543e-15 -4.65 0 3.95183 7.95139e-16 -0 7.10543e-15 -3.3 0 3.74805 7.95139e-16 -9.54166e-15 0.5 -2.15 -0.8 -1.98785e-16 0 -6.36111e-15 -3.55271e-15 -7.75 -0.2 1.6349 4.22443 -0.0782564 -7.10543e-15 -3.8 0 4.21983 3.97569e-16 -0 0 -3.4 0 3.98833 7.95139e-16 6.36111e-15 0.75 -1.75 -1.85 -1.98785e-16 0 -6.36111e-15 0 -7.15 -1 0.13174 3.01115 -0.0183659 -7.10543e-15 -3 0 6.37537 -7.95139e-16 -1.59028e-14 -7.10543e-15 -2.35 0 5.86262 1.59028e-15 -0 14.5 1.42109e-14 -1.42109e-14 2.49448 -2.65927 6.02277 0 -45.7849 -1 -0.00644104 8.68921 0.178155 0 -41.7151 -2 -1.63188 -5.83954 -2.29352 -7.10543e-15 -7.5 12.5 2.88155e-20 2.72989e-20 -3.18055e-15 3.55271e-15 0 4 4.78005 -0.816878 -0.393327 -14.5 0 0 -0.604693 -3.83207 -2.5533 7.10543e-15 -45.7849 -1 0.00604403 6.09364 -0.798791 -7.10543e-15 -41.7151 -2 1.05267 -2.19923 0.812601 0 -7.5 12.5 -9.70628e-20 -1.94126e-19 -6.36111e-15 0 0 4 -3.52763 1.10412 -8.21518 
-62.3311 94.6883 34.4713 0.356378 -0.474828 127.068 7.10543e-15 8.09494 1.42109e-14 0.0317333 0.0978246 -0.0414289 0 8.09494 0 0.269606 -0.045808 -0.638649 7.10543e-15 8.09494 0 0.132473 -0.0195557 -0.322058 0 8.09494 0 0.132471 -0.0195554 -0.322055 7.10543e-15 17.2017 0 -0.779884 -0.228226 3.87117 -1.06581e-14 10.9282 0 -0.228301 -1.42466 9.03233 5 17 0 -0.47278 0.622666 2.62215 9 -2.84217e-14 0 0.0456432 0.411249 -1.85989 9 0 0 -7.60512 -4.32431 -4.26541 3.55271e-15 -29.0233 -2 6.9572 2.75994 13.6819 -7.10543e-15 -22.9767 2 3.37632 0.103943 -6.0223 -0.5 -1.5 2.65 -0.440122 -8.24188 -6.45506 0 -3.8 3.7 -0.0459275 16.987 0.0144902 0 -3 2.7 -3.22407e-16 1.8522 2.22755e-14 1.42109e-14 -1.9 1.6 2.20695e-32 1.98785e-16 -6.36111e-15 7.10543e-15 -8.3 1.9 -0.126728 2.94215 -3.18475e-15 0 -4.5 0 -4.95245 3.97569e-16 6.36111e-15 -7.10543e-15 -3.4 0 -4.63464 0 3.18055e-15 -0.25 -2.2 0.4 2.20695e-32 1.98785e-16 -6.36111e-15 7.10543e-15 -8.3 1 -1.41595 3.35853 0.064557 7.10543e-15 -4.65 0 -4.09822 3.97569e-16 -9.54166e-15 0 -3.3 0 -3.8799 0 3.18055e-15 -0.5 -2.15 -0.8 2.20695e-32 1.98785e-16 -6.36111e-15 -7.10543e-15 -7.75 -0.2 -4.00887 4.12666 0.208363 0 -3.8 0 -1.99124 7.95139e-16 -3.18055e-15 -3.55271e-15 -3.4 -1.42109e-14 -1.9389 7.95139e-16 -0 -0.75 -1.75 -1.85 2.20695e-32 1.98785e-16 -6.36111e-15 7.10543e-15 -7.15 -1 -5.33469 4.49387 0.292519 3.55271e-15 -3 0 -1.96723 0 6.36111e-15 7.10543e-15 -2.35 0 -1.92305 -1.59028e-15 -6.36111e-15 -5 17 1.42109e-14 1.18894 -1.21686 4.56468 -9 0 0 -0.724479 -0.232636 -3.1807 -9 0 0 -0.699211 -0.524536 1.99828 -3.55271e-15 -29.0233 -2 -0.172147 -0.545022 0.857843 -7.10543e-15 -22.9767 2 2.14781 1.53954 -4.51317 0.5 -1.5 2.65 -0.103824 -3.20658 4.09596 -3.55271e-15 -3.8 3.7 0.0284924 4.39394 -0 -3.55271e-15 -3 2.7 1.49221e-15 5.95473 -9.59343e-15 3.55271e-15 -1.9 1.6 -1.98785e-16 0 -6.36111e-15 -7.10543e-15 -8.3 1.9 6.22224 7.85772 -0.472594 0 -4.5 0 2.43298 7.95139e-16 -3.18055e-15 -7.10543e-15 -3.4 0 2.35418 -7.95139e-16 6.36111e-15 0.25 -2.2 0.4 -1.98785e-16 0 -6.36111e-15 3.55271e-15 -8.3 1 4.64599 6.61535 -0.294954 0 -4.65 0 3.9516 0 3.18055e-15 7.10543e-15 -3.3 0 3.74785 3.18055e-15 -0 0.5 -2.15 -0.8 -1.98785e-16 0 -6.36111e-15 3.55271e-15 -7.75 -0.2 1.63494 4.22525 -0.0782565 0 -3.8 0 4.22331 -1.19271e-15 6.36111e-15 0 -3.4 1.42109e-14 3.98808 -7.95139e-16 -3.18055e-15 0.75 -1.75 -1.85 -1.98785e-16 0 -6.36111e-15 3.55271e-15 -7.15 -1 0.13174 3.01204 -0.0183659 0 -3 0 6.38355 -7.95139e-16 -6.36111e-15 0 -2.35 0 5.86955 -2.38542e-15 3.18055e-15 14.5 1.42109e-14 1.42109e-14 2.49516 -2.66583 6.02363 0 -45.7849 -1 -0.0068366 8.69702 0.180635 7.10543e-15 -41.7151 -2 -1.63207 -5.83879 -2.26337 3.55271e-15 -7.5 12.5 9.69852e-35 5.82377e-19 -9.54166e-15 0 0 4 4.78093 -0.816769 -0.404802 -14.5 0 0 -0.603905 -3.8327 -2.54901 -1.06581e-14 -45.7849 -1 0.00595961 6.0903 -0.79843 0 -41.7151 -2 1.0526 -2.19585 0.801627 0 -7.5 12.5 0 9.70628e-20 -0 0 4.33681e-19 4 -3.53761 1.10454 -8.21524 
